<svg width="176" height="19" viewBox="0 0 176 19" fill="none" xmlns="http://www.w3.org/2000/svg">
<path d="M12.225 0.524998V1.975H7.375V18H5.625V1.975H0.75V0.524998H12.225ZM18.7383 0.524998V18H16.9883V0.524998H18.7383ZM41.7762 0.749999V18H40.0262V4.225L33.8762 18H32.6012L26.4512 4.275V18H24.7012V0.749999H26.5512L33.2262 15.7L39.9012 0.749999H41.7762ZM49.4961 1.95V8.475H56.1211V9.925H49.4961V16.55H56.8711V18H47.7461V0.499999H56.8711V1.95H49.4961ZM72.5443 0.524998V1.975H67.6943V18H65.9443V1.975H61.0693V0.524998H72.5443ZM86.6076 18L82.2826 10.7H79.0576V18H77.3076V0.524998H82.5576C84.5076 0.524998 85.9826 0.991666 86.9826 1.925C87.9993 2.85833 88.5076 4.08333 88.5076 5.6C88.5076 6.86667 88.141 7.95 87.4076 8.85C86.691 9.73333 85.6243 10.3083 84.2076 10.575L88.7076 18H86.6076ZM79.0576 9.275H82.5826C83.9493 9.275 84.9743 8.94167 85.6576 8.275C86.3576 7.60833 86.7076 6.71667 86.7076 5.6C86.7076 4.45 86.3743 3.56667 85.7076 2.95C85.041 2.31667 83.991 2 82.5576 2H79.0576V9.275ZM104.105 13.85H96.1555L94.6305 18H92.7805L99.1555 0.749999H101.13L107.48 18H105.63L104.105 13.85ZM103.58 12.4L100.13 2.95L96.6805 12.4H103.58ZM111.489 9.25C111.489 7.53333 111.864 6 112.614 4.65C113.364 3.28333 114.389 2.225 115.689 1.475C116.989 0.708333 118.439 0.325 120.039 0.325C121.989 0.325 123.656 0.791666 125.039 1.725C126.439 2.64167 127.456 3.94167 128.089 5.625H126.039C125.539 4.44167 124.772 3.51667 123.739 2.85C122.722 2.18333 121.489 1.85 120.039 1.85C118.756 1.85 117.597 2.15 116.564 2.75C115.547 3.35 114.747 4.21667 114.164 5.35C113.581 6.46667 113.289 7.76667 113.289 9.25C113.289 10.7333 113.581 12.0333 114.164 13.15C114.747 14.2667 115.547 15.125 116.564 15.725C117.597 16.325 118.756 16.625 120.039 16.625C121.489 16.625 122.722 16.3 123.739 15.65C124.772 14.9833 125.539 14.0667 126.039 12.9H128.089C127.456 14.5667 126.439 15.8583 125.039 16.775C123.639 17.6917 121.972 18.15 120.039 18.15C118.439 18.15 116.989 17.775 115.689 17.025C114.389 16.2583 113.364 15.2 112.614 13.85C111.864 12.5 111.489 10.9667 111.489 9.25ZM142.901 18L135.326 9.925V18H133.576V0.524998H135.326V8.7L142.901 0.524998H145.126L136.951 9.25L145.201 18H142.901ZM151.535 1.95V8.475H158.16V9.925H151.535V16.55H158.91V18H149.785V0.499999H158.91V1.95H151.535ZM173.658 18L169.333 10.7H166.108V18H164.358V0.524998H169.608C171.558 0.524998 173.033 0.991666 174.033 1.925C175.05 2.85833 175.558 4.08333 175.558 5.6C175.558 6.86667 175.192 7.95 174.458 8.85C173.742 9.73333 172.675 10.3083 171.258 10.575L175.758 18H173.658ZM166.108 9.275H169.633C171 9.275 172.025 8.94167 172.708 8.275C173.408 7.60833 173.758 6.71667 173.758 5.6C173.758 4.45 173.425 3.56667 172.758 2.95C172.092 2.31667 171.042 2 169.608 2H166.108V9.275Z" fill="black"/>
</svg>
