<svg width="20" height="20" viewBox="0 0 20 20" fill="none" xmlns="http://www.w3.org/2000/svg">
<path d="M10.0028 19.1667C4.94235 19.1724 0.833252 15.0691 0.833252 10.0258C0.833252 4.94249 4.90796 0.84486 9.97413 0.833398C15.0632 0.821936 19.1666 4.92529 19.1666 10.0201C19.1666 15.0748 15.069 19.161 10.0028 19.1667ZM9.06864 11.5216C9.02279 11.4471 8.99414 11.3669 8.93683 11.3096C8.2835 10.6562 7.6359 9.99718 6.97684 9.34959C6.56421 8.94269 5.94526 8.98281 5.59568 9.42409C5.29767 9.80233 5.33778 10.3009 5.70457 10.6677C6.58713 11.556 7.47543 12.4443 8.36373 13.3269C8.81075 13.7681 9.29788 13.7853 9.76782 13.3612C10.467 12.7251 11.1604 12.0832 11.8596 11.4471C12.9657 10.4385 14.066 9.42409 15.1664 8.40971C15.4644 8.14036 15.5733 7.80223 15.4472 7.41826C15.3268 7.05148 15.0575 6.83943 14.6735 6.79358C14.3755 6.75347 14.1291 6.86809 13.9113 7.06867C12.9485 7.95697 11.98 8.83953 11.0114 9.72783C10.3925 10.3067 9.75635 10.8912 9.06864 11.5216Z" fill="#13CB68"/>
</svg>
