<svg width="12" height="12" viewBox="0 0 12 12" fill="none" xmlns="http://www.w3.org/2000/svg">
<path d="M11.2969 12C11.375 12 11.4531 12 11.5312 12C11.7719 11.9281 11.925 11.7688 12 11.5314C12 11.4533 12 11.3752 12 11.2971C11.9438 11.1221 11.8219 10.9909 11.6938 10.8628C10.1063 9.27883 8.51875 7.68862 6.93125 6.10154C6.9 6.07029 6.86875 6.03593 6.825 5.98906C6.86875 5.95157 6.90625 5.92346 6.94062 5.88909C8.52187 4.30825 10.1062 2.72429 11.6875 1.14345C11.8188 1.01224 11.9406 0.881021 12 0.702942C12 0.624838 12 0.546733 12 0.468628C11.925 0.23119 11.7688 0.0749807 11.5312 0C11.4531 0 11.375 0 11.2969 0C11.1219 0.0562353 10.9906 0.178079 10.8625 0.30617C9.27812 1.89638 7.6875 3.48347 6.1 5.07055C6.06875 5.1018 6.03438 5.13304 5.98438 5.1799C5.94688 5.13304 5.92188 5.09242 5.89062 5.06118C4.30625 3.47722 2.71875 1.89326 1.1375 0.309294C1.00937 0.181202 0.88125 0.0593586 0.703125 0.00312328C0.625 0.00312328 0.546875 0.00312328 0.46875 0.00312328C0.234375 0.0812283 0.075 0.234313 0 0.471751C0 0.549856 0 0.627961 0 0.706065C0.05625 0.88102 0.178125 1.01224 0.30625 1.14033C1.89687 2.72742 3.48437 4.3145 5.07187 5.90159C5.10312 5.93283 5.13438 5.9672 5.17813 6.01406C5.13125 6.05467 5.09062 6.08591 5.05625 6.12028C3.46875 7.70424 1.88437 9.28821 0.296875 10.8722C0.171875 10.9971 0.05625 11.1252 0 11.2971C0 11.3752 0 11.4533 0 11.5314C0.075 11.7688 0.23125 11.925 0.46875 12C0.546875 12 0.625 12 0.703125 12C0.875 11.9469 1.00313 11.8282 1.12813 11.7032C2.71875 10.113 4.30938 8.52278 5.89688 6.92945C5.92813 6.8982 5.94375 6.84822 5.96563 6.8076C5.98438 6.81385 6.00313 6.8201 6.02188 6.82947C6.05313 6.87009 6.08125 6.91382 6.11563 6.94819C7.7 8.53215 9.2875 10.1192 10.8687 11.7032C10.9969 11.8282 11.125 11.9469 11.2969 12Z" fill="#111111"/>
</svg>
