<svg width="20" height="20" viewBox="0 0 20 20" fill="none" xmlns="http://www.w3.org/2000/svg">
<path d="M0 9.99107C0.00595238 4.45702 4.49404 -0.0118775 10.0417 2.37156e-05C15.5298 0.00597431 20.0059 4.50462 20 10.0089C19.994 15.5073 15.5119 20.0119 10.0476 20C4.47619 19.9881 0 15.537 0 9.99107ZM8.99404 9.99107C8.92262 10.0684 8.86905 10.1279 8.80952 10.1874C8.04167 10.967 7.27381 11.7465 6.50595 12.526C6.32143 12.7105 6.22024 12.9247 6.26785 13.1925C6.31547 13.4722 6.48214 13.6685 6.75595 13.7519C7.04762 13.8411 7.29762 13.7578 7.50595 13.5436C8.27976 12.7581 9.05357 11.9786 9.82143 11.1871C9.875 11.1276 9.8988 11.0443 9.93452 10.967C10.0833 11.08 10.1309 11.1514 10.1905 11.205C10.9643 11.9786 11.7381 12.7522 12.5119 13.5257C12.6905 13.7042 12.8929 13.8114 13.1488 13.7757C13.4464 13.734 13.6548 13.5674 13.75 13.2818C13.8512 12.9902 13.7679 12.7403 13.5595 12.526C12.7679 11.7406 11.9702 10.961 11.1786 10.1755C11.125 10.122 11.0714 10.0625 11.0059 9.99107C11.0774 9.93157 11.125 9.88991 11.1726 9.84231C11.9464 9.08063 12.7202 8.31301 13.494 7.55728C13.6726 7.37876 13.7857 7.18239 13.7679 6.92652C13.744 6.62304 13.5893 6.40881 13.3036 6.3017C13.0119 6.19459 12.744 6.26005 12.5238 6.48022C11.7381 7.2657 10.9524 8.04523 10.1726 8.83071C10.119 8.88426 10.0595 8.93782 9.98214 9.00922C9.91071 8.93187 9.86309 8.86641 9.80357 8.80691C9.05357 8.05118 8.29762 7.3014 7.54762 6.55163C7.35119 6.34931 7.11904 6.26005 6.83928 6.32551C6.28571 6.46237 6.10714 7.12289 6.52381 7.53943C7.33928 8.34871 8.16071 9.15799 8.99404 9.99107Z" fill="url(#paint0_linear_279_2043)"/>
<defs>
<linearGradient id="paint0_linear_279_2043" x1="16.5" y1="1" x2="2" y2="17.5" gradientUnits="userSpaceOnUse">
<stop stop-color="#E93B3B"/>
<stop offset="1" stop-color="#9E0303"/>
</linearGradient>
</defs>
</svg>
