<svg width="19" height="19" viewBox="0 0 19 19" fill="none" xmlns="http://www.w3.org/2000/svg">
<path d="M0 8.90254C0 9.27429 0 9.64603 0 10.0178C0.0139389 10.1525 0.0325222 10.2873 0.0464592 10.4174C0.213711 11.9601 0.701525 13.396 1.5703 14.6878C3.0802 16.9415 5.16619 18.3494 7.84685 18.8513C8.19529 18.9164 8.55302 18.9489 8.90611 19C9.27778 19 9.64945 19 10.0211 19C10.0815 18.9907 10.1419 18.9768 10.2023 18.9675C10.6158 18.9071 11.0386 18.8745 11.4474 18.7816C13.9004 18.2333 15.8517 16.9182 17.2919 14.8597C18.6206 12.9592 19.1781 10.8356 18.9505 8.52615C18.7646 6.63027 18.0538 4.93419 16.8273 3.47975C15.0108 1.32829 12.6878 0.1573 9.87245 0.0132493C8.00017 -0.0843331 6.23474 0.357111 4.63192 1.33758C2.18355 2.83385 0.682941 4.99925 0.153313 7.82449C0.0789795 8.17764 0.0464592 8.54009 0 8.90254ZM10.574 11.7046C10.574 11.8858 10.574 12.0624 10.574 12.2436C10.574 12.9964 10.5786 13.7538 10.574 14.5066C10.5647 15.3244 9.83064 15.8495 9.08265 15.5846C8.62736 15.4266 8.35325 15.0084 8.35325 14.4694C8.35325 13.2148 8.35325 11.9601 8.35325 10.7008C8.35325 10.1154 8.34861 9.52521 8.35325 8.93972C8.3579 8.43322 8.6413 8.01501 9.08265 7.86166C9.83528 7.5968 10.5693 8.12188 10.574 8.93972C10.5786 9.85978 10.574 10.7798 10.574 11.7046ZM9.45897 3.3357C10.0629 3.3357 10.5693 3.83755 10.574 4.44628C10.574 5.05036 10.0722 5.55686 9.46361 5.56151C8.85965 5.56151 8.35325 5.05965 8.34861 4.45093C8.34861 3.84684 8.85036 3.3357 9.45897 3.3357Z" fill="#13CB68"/>
</svg>
