<svg width="16" height="20" viewBox="0 0 16 20" fill="none" xmlns="http://www.w3.org/2000/svg">
<path d="M2.50524 8.27576C2.50524 8.18956 2.50524 8.11349 2.50524 8.0425C2.51065 7.25145 2.48362 6.45532 2.52686 5.66427C2.64577 3.3621 4.44019 1.42503 6.84536 0.948366C9.93695 0.339863 12.8718 2.20594 13.4177 5.1369C13.4771 5.45129 13.4879 5.7809 13.4934 6.10036C13.5042 6.7545 13.4988 7.40865 13.4988 8.05772C13.4988 8.12364 13.4988 8.19463 13.4988 8.27069C13.6123 8.28083 13.7096 8.29098 13.8014 8.30112C14.7365 8.45324 15.3256 9.11753 15.331 10.0404C15.3364 10.9025 15.331 11.7645 15.331 12.6266C15.331 14.2036 15.331 15.7857 15.331 17.3627C15.331 18.2147 14.8121 18.8789 13.9798 19.097C13.8068 19.1426 13.6231 19.1629 13.4393 19.1629C9.81263 19.168 6.18596 19.168 2.55389 19.1629C1.47832 19.1629 0.672989 18.4226 0.672989 17.4135C0.662179 14.949 0.667584 12.4795 0.672989 10.0151C0.672989 9.15809 1.28914 8.34675 2.50524 8.27576ZM12.2556 8.27576C12.261 8.23012 12.2719 8.19463 12.2719 8.15913C12.2719 7.37315 12.2935 6.58717 12.261 5.80118C12.1692 3.3266 9.6667 1.53152 7.08858 2.0741C5.08337 2.49498 3.75377 4.04666 3.72674 5.99895C3.71593 6.7038 3.72674 7.40865 3.72674 8.10842C3.72674 8.1642 3.73755 8.21491 3.74296 8.27576C6.59133 8.27576 9.41808 8.27576 12.2556 8.27576ZM9.83966 12.8142C9.81804 12.7026 9.80182 12.5353 9.75859 12.3781C9.53158 11.6124 8.79652 11.1205 7.93174 11.1509C7.07236 11.1814 6.37513 11.729 6.21299 12.5099C6.04003 13.3162 6.4454 14.0768 7.2237 14.4064C7.35882 14.4622 7.39665 14.5281 7.39665 14.6549C7.38584 15.0048 7.39125 15.3496 7.39665 15.6995C7.40206 16.0747 7.62366 16.2979 7.9966 16.3029C8.37494 16.308 8.61275 16.0798 8.61275 15.6995C8.61816 15.3445 8.61816 14.9896 8.61275 14.6346C8.60735 14.518 8.65059 14.4622 8.76949 14.4115C9.46132 14.1123 9.80182 13.5799 9.83966 12.8142Z" fill="#13CB68"/>
</svg>
