<svg width="19" height="18" viewBox="0 0 19 18" fill="none" xmlns="http://www.w3.org/2000/svg">
<path d="M19 8.41813C18.9539 8.08742 18.9192 7.75287 18.8577 7.42216C18.3424 4.7342 16.9158 2.65767 14.5701 1.26947C11.3476 -0.63787 7.45216 -0.372535 4.47579 1.90781C3.18757 2.89608 2.26467 4.16508 1.65709 5.6648C1.51097 6.02242 1.64556 6.37236 1.97242 6.50695C2.29928 6.64154 2.64152 6.48772 2.79149 6.12625C3.41061 4.60346 4.40273 3.38446 5.7794 2.47693C8.72115 0.542679 12.7627 0.90415 15.3084 3.33446C16.9273 4.88033 17.8002 6.77613 17.7618 9.01032C17.7041 12.1982 16.2044 14.5631 13.3626 15.9936C10.3593 17.5049 6.68692 16.7973 4.37197 14.3555C3.69133 13.6364 3.16835 12.8135 2.79919 11.8982C2.69921 11.6521 2.5377 11.4868 2.26082 11.4637C1.78399 11.4253 1.46866 11.8675 1.6494 12.3289C1.89551 12.9557 2.20699 13.5518 2.59538 14.1055C4.06049 16.1936 6.04858 17.4741 8.56734 17.8817C12.955 18.5931 17.1273 16.0359 18.5539 11.7983C18.777 11.133 18.9116 10.4524 18.9654 9.75249C18.9692 9.69866 18.9885 9.64482 18.9962 9.59099C19 9.2026 19 8.81036 19 8.41813Z" fill="#E93B3B"/>
<path d="M11.1667 9.62188C11.0898 9.70648 11.0436 9.75262 10.9975 9.79877C10.3399 10.4563 9.67848 11.1101 9.0286 11.7753C8.92093 11.883 8.83248 12.033 8.79403 12.1752C8.72866 12.4329 8.86709 12.6867 9.09397 12.8097C9.32855 12.9366 9.59003 12.9136 9.79384 12.729C9.93228 12.6059 10.0553 12.4713 10.1861 12.3444C11.1474 11.3869 12.1088 10.4256 13.074 9.46806C13.3432 9.19888 13.3509 8.81818 13.0855 8.55285C12.0165 7.48382 10.9436 6.41863 9.8746 5.3496C9.70924 5.18425 9.52082 5.08427 9.2824 5.13426C8.81326 5.22655 8.61714 5.76491 8.92862 6.13023C9.05936 6.28404 9.20934 6.42248 9.35162 6.56476C9.9169 7.13388 10.486 7.69916 11.0513 8.26444C11.0782 8.29521 11.1051 8.32597 11.1628 8.39134C11.0551 8.39134 10.9859 8.39134 10.9167 8.39134C7.59425 8.39134 4.26795 8.39134 0.945499 8.39134C0.841673 8.39134 0.734001 8.39519 0.637865 8.4221C0.376375 8.48748 0.195641 8.73743 0.195641 9.00661C0.195641 9.27579 0.380221 9.52574 0.637865 9.59112C0.737846 9.61419 0.845518 9.62188 0.945499 9.62188C4.25642 9.62188 7.56734 9.62188 10.8821 9.62188C10.9629 9.62188 11.0398 9.62188 11.1667 9.62188Z" fill="#E93B3B"/>
</svg>
