<svg width="19" height="19" viewBox="0 0 19 19" fill="none" xmlns="http://www.w3.org/2000/svg">
<path d="M0.876512 11.3805C0.963052 11.0777 1.00631 10.7315 1.13612 10.4286C1.3092 9.82281 1.56884 9.30355 1.95827 8.74104C2.30443 8.87085 2.60733 9.00067 2.91022 9.13048C3.21311 8.82759 3.51601 8.5247 3.77563 8.26508C3.8189 8.22181 3.8189 8.17854 3.77563 8.13527C3.64582 7.83238 3.51599 7.57276 3.38618 7.26986C4.16505 6.66408 5.07373 6.27463 6.06895 6.05827C6.19876 6.36117 6.32858 6.6208 6.45839 6.88042C6.50166 6.96696 6.54493 7.01023 6.67474 7.01023C6.97763 6.96696 7.32378 6.96697 7.62667 6.96697C7.79975 6.96697 7.84304 6.92369 7.88631 6.79387C7.97285 6.53425 8.05938 6.31791 8.14592 6.10156C8.14592 6.05829 8.23245 6.01501 8.27572 6.01501C9.01132 6.05828 10.2662 6.57754 10.9152 7.05351C10.7854 7.3564 10.6989 7.61603 10.5691 7.91892C10.5258 8.00546 10.5258 8.092 10.6123 8.13527C10.872 8.35162 11.0883 8.56796 11.3479 8.82758C11.4345 8.91412 11.4777 8.95738 11.6075 8.87084C11.8672 8.74103 12.1701 8.61124 12.4297 8.48143C12.7759 8.91413 13.0355 9.39009 13.2518 9.9526C13.3816 10.2988 13.4682 10.6882 13.598 11.0344C13.6413 11.1209 13.598 11.2074 13.5114 11.2507C13.2518 11.3373 13.0355 11.4671 12.7758 11.5969C12.7326 11.6402 12.6893 11.6834 12.6893 11.77C12.6893 12.1161 12.6893 12.5056 12.7326 12.8517C12.7326 12.895 12.7758 12.9815 12.8191 12.9815C13.0787 13.0681 13.3384 13.1979 13.598 13.2844C13.6845 13.3277 13.7278 13.371 13.6845 13.4575C13.5114 14.3662 13.2085 15.2316 12.6893 16.0104C12.6893 16.0104 12.6893 16.0537 12.646 16.0537C12.3431 15.9239 12.0403 15.8374 11.7806 15.7076C11.6941 15.6643 11.6508 15.7076 11.5643 15.7508C11.3479 16.0105 11.0883 16.2701 10.8719 16.4864C10.7854 16.573 10.7854 16.6162 10.8287 16.7028C10.9585 16.9624 11.045 17.1788 11.1748 17.4384C11.2181 17.5249 11.2181 17.5682 11.1316 17.6114C10.3527 18.174 9.53057 18.5201 8.57862 18.7365H8.53536C8.40555 18.4769 8.27574 18.2172 8.1892 17.9143C8.14593 17.7845 8.10266 17.7413 7.97285 17.7845C7.62669 17.8278 7.28052 17.8278 6.93435 17.8278C6.84781 17.8278 6.80453 17.8711 6.76126 17.9576C6.63145 18.2605 6.54492 18.5634 6.4151 18.823C5.46316 18.6932 4.59776 18.347 3.77563 17.8278C3.73236 17.7845 3.68907 17.698 3.73234 17.6547C3.81888 17.3951 3.9487 17.1355 4.03524 16.8758C4.03524 16.8326 4.03525 16.7461 3.99198 16.7028C3.68909 16.4432 3.38618 16.1403 3.08329 15.8806C2.78039 16.0104 2.47752 16.1403 2.13136 16.3133C2.00155 16.097 1.87173 15.9239 1.74192 15.7508C1.35249 15.145 1.13614 14.496 0.963058 13.8037C0.919787 13.7171 0.963063 13.6738 1.0496 13.6306C1.30923 13.544 1.56883 13.4142 1.78518 13.2844C1.82845 13.2411 1.87172 13.1979 1.87172 13.1546C1.87172 12.7652 1.87173 12.419 1.82846 12.0296C1.82846 11.9863 1.78519 11.8998 1.74192 11.8998C1.43903 11.77 1.13614 11.6834 0.833252 11.5536C0.876522 11.4671 0.876512 11.4238 0.876512 11.3805ZM7.28051 15.3181C8.88151 15.3614 10.2229 14.02 10.2229 12.4623C10.2662 10.818 8.96806 9.47664 7.36706 9.47664C5.72279 9.43337 4.3814 10.7315 4.3814 12.3758C4.33813 13.9335 5.63624 15.2749 7.28051 15.3181Z" fill="#13CB68"/>
<path d="M13.9875 8.65446C13.9875 8.39484 13.9875 8.17851 13.9875 7.91889C13.9875 7.83235 13.9442 7.78906 13.8577 7.74579C13.598 7.61598 13.3384 7.44291 13.0788 7.26983C12.9923 7.22656 12.949 7.22656 12.8625 7.26983C12.6461 7.39964 12.4298 7.52944 12.2134 7.65925C11.824 7.26981 11.5211 6.83712 11.3047 6.31788C11.1316 5.88518 11.1316 5.84189 11.5211 5.62554C11.7807 5.49573 11.9105 5.36593 11.8672 5.01977C11.824 4.80342 11.8672 4.58707 11.8672 4.37072C11.8672 4.32745 11.824 4.24089 11.7807 4.19762C11.6076 4.06781 11.3913 3.98128 11.2182 3.85147C11.1749 3.8082 11.1316 3.76493 11.1749 3.72166C11.348 3.07261 11.6941 2.51009 12.1701 1.99085C12.3865 2.12066 12.6028 2.25046 12.8192 2.38027C12.9057 2.42354 12.949 2.42354 13.0355 2.38027C13.2951 2.20718 13.5548 2.07737 13.8144 1.94756C13.9009 1.90429 13.9442 1.86102 13.9442 1.73121C13.9442 1.47159 13.9442 1.25526 13.9442 0.995638C14.6365 0.779286 15.3289 0.779286 16.0212 0.995638C16.0212 1.25526 16.0212 1.47159 16.0212 1.73121C16.0212 1.81775 16.0644 1.86102 16.151 1.94756C16.4106 2.07737 16.6702 2.25046 16.9298 2.38027C17.0164 2.42354 17.0597 2.42354 17.1462 2.38027C17.3625 2.25046 17.5789 2.12066 17.7953 1.99085C18.3145 2.51009 18.6607 3.11588 18.8338 3.80821C18.6174 3.93802 18.401 4.06781 18.1847 4.19762C18.0982 4.24089 18.0982 4.28416 18.0982 4.41398C18.0982 4.71687 18.0982 5.01978 18.0982 5.32267C18.0982 5.40921 18.0982 5.45246 18.1847 5.49573C18.401 5.62554 18.6174 5.75535 18.8338 5.84189C18.6607 6.53421 18.3145 7.14 17.7953 7.65925C17.5789 7.52944 17.3625 7.39964 17.1462 7.26983C17.0597 7.22656 17.0164 7.22656 16.9298 7.26983C16.6702 7.44291 16.4106 7.57272 16.151 7.70253C16.0644 7.7458 16.0212 7.78907 16.0212 7.91889C16.0212 8.13524 16.0212 8.3083 16.0212 8.52465C16.0212 8.56792 15.9779 8.65446 15.9346 8.65446C15.5019 8.87081 14.55 8.82754 13.9875 8.65446ZM16.4971 4.84668C16.4971 4.02454 15.8481 3.3755 15.026 3.3755C14.2038 3.3755 13.5548 4.02454 13.5548 4.84668C13.5548 5.66881 14.2038 6.31788 15.026 6.31788C15.8481 6.31788 16.4971 5.66881 16.4971 4.84668Z" fill="#13CB68"/>
</svg>
