<svg width="18" height="18" viewBox="0 0 18 18" fill="none" xmlns="http://www.w3.org/2000/svg">
<path d="M17.2402 8.78605C17.2402 10.9909 17.2402 13.1907 17.2402 15.3955C17.2402 16.2614 16.7116 16.9611 15.8961 17.1826C15.8257 17.2027 15.7501 17.2279 15.6746 17.2279C15.0907 17.2279 14.5017 17.2732 13.9228 17.2077C13.0469 17.102 12.4177 16.3419 12.4127 15.4559C12.4026 14.5499 12.4127 13.6438 12.4127 12.7377C12.4127 9.224 12.4127 5.71538 12.4127 2.20173C12.4127 1.23019 13.0268 0.465044 13.9833 0.364366C14.5924 0.298926 15.2216 0.308993 15.8257 0.389536C16.6361 0.495247 17.2402 1.28053 17.2452 2.13126C17.2553 3.29409 17.2452 4.46195 17.2502 5.62477C17.2402 6.67182 17.2402 7.72894 17.2402 8.78605Z" fill="#13CB68"/>
<path d="M11.1993 11.2225C11.1993 12.5866 11.1993 13.9559 11.1993 15.32C11.1993 16.4829 10.4342 17.248 9.27136 17.248C8.80825 17.248 8.33506 17.2732 7.87698 17.2128C7.00108 17.092 6.36681 16.3419 6.36681 15.456C6.36178 12.6219 6.36178 9.79283 6.36681 6.95876C6.36681 5.96708 7.1672 5.17676 8.15887 5.16669C8.6673 5.16166 9.18075 5.14152 9.68414 5.20193C10.555 5.31268 11.1893 6.06776 11.1943 6.95876C11.2044 8.37831 11.1993 9.8029 11.1993 11.2225Z" fill="#13CB68"/>
<path d="M0.321289 13.0195C0.321289 12.2393 0.321289 11.459 0.321289 10.6788C0.321289 9.57132 1.10154 8.79106 2.209 8.79106C2.69225 8.79106 3.18053 8.77093 3.65875 8.83133C4.47928 8.93705 5.13871 9.67703 5.14375 10.5127C5.15885 12.1839 5.15885 13.8602 5.14375 15.5314C5.13368 16.3973 4.45914 17.1322 3.56311 17.2228C2.98421 17.2832 2.39021 17.2732 1.81635 17.2027C0.970658 17.102 0.336389 16.3419 0.326322 15.4912C0.316254 14.6656 0.326323 13.84 0.321289 13.0195C0.326323 13.0195 0.321289 13.0195 0.321289 13.0195Z" fill="#13CB68"/>
</svg>
