<svg width="15" height="22" viewBox="0 0 15 22" fill="none" xmlns="http://www.w3.org/2000/svg">
<path d="M11.9817 21.0833C11.6654 21.0255 11.338 20.9888 11.0272 20.91C8.79635 20.3535 7.16483 18.5999 6.86516 16.4315C6.85961 16.4052 6.85961 16.379 6.85406 16.358C6.46006 16.2687 6.06605 16.2004 5.68869 16.0797C3.41899 15.3814 1.85406 13.3653 1.83186 11.1076C1.82077 10.11 1.83186 9.11245 1.83186 8.08338C1.64319 8.08338 1.46006 8.08338 1.27693 8.08338C0.832975 8.07813 0.583252 7.84186 0.583252 7.42183C0.583252 6.68153 0.583252 5.94123 0.583252 5.20093C0.583252 4.7809 0.832973 4.54463 1.28247 4.54463C1.87071 4.54463 2.45895 4.54463 3.08048 4.54463C3.08048 4.47113 3.08048 4.39762 3.08048 4.32937C3.08048 3.4578 3.09157 2.58624 3.07493 1.71468C3.06938 1.34716 3.18037 1.07939 3.54108 0.921877C3.65206 0.921877 3.76305 0.921877 3.87404 0.921877C4.23475 1.07939 4.34574 1.34716 4.34019 1.71468C4.32354 2.58624 4.33464 3.4578 4.33464 4.32937C4.33464 4.39762 4.33464 4.46588 4.33464 4.52888C6.43231 4.52888 8.49668 4.52888 10.5777 4.52888C10.5777 4.45012 10.5777 4.37662 10.5777 4.30836C10.5777 3.44205 10.5888 2.57574 10.5722 1.70943C10.5666 1.34191 10.6776 1.07414 11.0383 0.916626C11.1493 0.916626 11.2603 0.916626 11.3713 0.916626C11.732 1.07414 11.843 1.34191 11.8374 1.70943C11.8208 2.58099 11.8319 3.45255 11.8319 4.32937C11.8319 4.39762 11.8319 4.46588 11.8319 4.53938C12.4645 4.53938 13.0583 4.53938 13.6576 4.53938C14.0627 4.53938 14.3291 4.7809 14.3291 5.15892C14.3346 5.92548 14.3346 6.69203 14.3291 7.46384C14.3291 7.83136 14.0627 8.07813 13.6743 8.08338C13.48 8.08863 13.2914 8.08338 13.0805 8.08338C13.0805 8.17789 13.0805 8.24614 13.0805 8.31965C13.0805 9.25946 13.086 10.194 13.0749 11.1338C13.0527 13.2445 11.6376 15.1924 9.55661 15.9589C9.10156 16.1269 8.61877 16.2267 8.13597 16.3632C8.13597 16.358 8.13042 16.3842 8.13597 16.4052C8.33575 17.4868 8.88514 18.3689 9.80079 19.0409C10.5722 19.6027 11.4545 19.881 12.4257 19.8967C12.7531 19.902 12.9917 20.0805 13.0638 20.364C13.1304 20.6265 12.9861 20.889 12.7031 21.0255C12.6754 21.0413 12.6476 21.057 12.6199 21.078C12.3979 21.0833 12.187 21.0833 11.9817 21.0833ZM7.28136 9.71099C7.28691 9.68474 7.28692 9.67949 7.28692 9.67424C7.48114 9.48523 7.67537 9.30147 7.8696 9.11245C8.14152 8.83943 8.14152 8.50341 7.87515 8.25664C7.61433 8.01513 7.26472 8.02038 6.98725 8.27764C6.58214 8.65567 6.18258 9.03895 5.78303 9.41697C5.63874 9.55348 5.55551 9.71624 5.5777 9.91051C5.60545 10.1468 5.74419 10.3043 5.96616 10.4093C6.51555 10.6666 7.06494 10.9291 7.64763 11.2021C7.51999 11.3176 7.409 11.4174 7.30356 11.5171C7.19257 11.6169 7.08159 11.7166 6.9817 11.8269C6.75417 12.0737 6.76527 12.3887 7.00389 12.6197C7.24252 12.856 7.59768 12.8875 7.84185 12.667C8.29135 12.2627 8.74086 11.8479 9.16261 11.4121C9.44008 11.1338 9.34574 10.7138 8.99613 10.5196C8.89624 10.4618 8.78525 10.4145 8.67981 10.3673C8.21366 10.152 7.74196 9.93151 7.28136 9.71099Z" fill="#13CB68"/>
</svg>
