<svg width="242" height="248" viewBox="0 0 242 248" fill="none" xmlns="http://www.w3.org/2000/svg">
<path d="M118.954 168.851C104.295 168.851 90.508 161.667 82.078 149.665C78.3293 144.329 72.2162 141.152 65.6945 141.152H10.8167C5.29357 141.152 0.808594 145.637 0.808594 151.16C0.808594 156.683 5.29357 161.168 10.8167 161.168H52.7354C60.8734 161.168 68.2825 165.377 74.1873 170.977C86.1786 182.35 102.182 188.867 118.996 188.867C154.876 188.867 184.07 159.673 184.07 123.794C184.07 87.9138 154.876 58.72 118.996 58.72C105.833 58.72 93.1627 62.756 82.5513 69.9523C79.6756 71.9025 79.2179 75.7433 80.8318 78.8203C83.5466 83.9963 92.3603 87.0453 97.4904 84.2448C104.02 80.6802 111.415 78.7362 119.037 78.7362C143.871 78.7362 164.095 98.9602 164.095 123.794C164.053 148.627 143.829 168.851 118.954 168.851Z" fill="#4FC083"/>
<path d="M47.1536 58.3048C57.2839 58.3048 68.2105 57.3692 76.9741 52.2876C90.4053 44.4995 106.22 40.385 123.066 41.3615C164.054 43.7286 197.483 76.5354 200.556 117.482C204.211 165.903 165.839 206.433 118.207 206.433C92.2337 206.433 69.0302 194.346 53.8533 175.529C51.7272 172.893 48.5859 171.218 45.1992 171.218C36.7866 171.218 30.1476 183.077 25.6008 190.155C21.7914 196.031 22.0147 203.744 26.7801 208.876C26.9175 209.024 27.0554 209.171 27.1935 209.319C32.0259 214.471 39.7765 215.225 45.9493 211.791C57.6185 205.312 71.8209 214.158 71.1565 227.488C70.8077 234.513 74.8841 241.093 81.614 243.137C81.7133 243.167 81.8127 243.197 81.9121 243.227C82.0158 243.258 82.1194 243.289 82.2232 243.32C88.9517 245.329 95.9937 242.149 99.6028 236.126C106.455 224.706 123.19 225.245 129.295 237.081C132.504 243.35 139.35 247.015 146.212 245.426C146.413 245.379 146.615 245.332 146.817 245.284C153.651 243.667 158.157 237.376 158.281 230.353C158.489 217.023 173.273 209.133 184.485 216.359C190.388 220.169 198.126 219.938 203.273 215.156C203.431 215.009 203.589 214.861 203.746 214.713C208.867 209.905 209.634 202.205 206.246 196.052C199.767 184.382 208.613 170.18 221.943 170.844C228.954 171.192 235.549 167.102 237.592 160.386C237.622 160.287 237.652 160.188 237.682 160.089C237.713 159.985 237.744 159.881 237.775 159.778C239.784 153.049 236.604 146.007 230.581 142.398C219.161 135.546 219.7 118.81 231.536 112.706C237.805 109.497 241.47 102.651 239.881 95.7893C239.834 95.5875 239.787 95.3858 239.739 95.1842C238.122 88.3494 231.831 83.8441 224.808 83.7196C211.478 83.512 203.588 68.7282 210.814 57.5158C214.624 51.6128 214.393 43.8749 209.611 38.7278C209.472 38.5785 209.333 38.4296 209.193 38.281C204.37 33.1413 196.645 32.3662 190.465 35.7553C178.796 42.2336 164.593 33.3883 165.258 20.0579C165.606 13.0464 161.516 6.45173 154.799 4.4089C154.7 4.37879 154.601 4.34882 154.502 4.31898C154.399 4.28777 154.295 4.25668 154.191 4.22571C147.463 2.21665 140.421 5.39661 136.812 11.4202C129.959 22.8403 113.224 22.3004 107.119 10.4651C103.91 4.19567 97.0644 0.53121 90.2028 2.11977C90.001 2.1665 89.7992 2.21372 89.5976 2.26144C82.7629 3.87905 78.2576 10.1701 78.1331 17.1925C77.9255 30.5229 63.1417 38.4131 51.9292 31.1873C46.0263 27.3765 38.2884 27.6075 33.1413 32.3903C33.0018 32.5199 32.8626 32.6498 32.7238 32.7801C27.5711 37.6124 26.817 45.363 30.2519 51.5358C32.4837 55.5324 37.5337 59.2353 42.072 58.6366C43.7375 58.4169 45.4343 58.3048 47.1536 58.3048Z" fill="#4FC083"/>
<path d="M47.0701 123.544C62.0696 123.544 74.2291 111.385 74.2291 96.3853C74.2291 81.3858 62.0696 69.2263 47.0701 69.2263C32.0706 69.2263 19.9111 81.3858 19.9111 96.3853C19.9111 111.385 32.0706 123.544 47.0701 123.544Z" fill="#4FC083"/>
</svg>
