<svg width="18" height="18" viewBox="0 0 18 18" fill="none" xmlns="http://www.w3.org/2000/svg">
<path d="M0 9.56001C0 9.18511 0 8.81021 0 8.4353C0.028125 8.21974 0.0468756 8.00885 0.0796881 7.79328C0.337501 5.96563 1.07344 4.34887 2.31562 2.98047C3.70781 1.44806 5.42344 0.487373 7.47187 0.135902C7.79531 0.0796665 8.11875 0.0468628 8.44219 0C8.81719 0 9.19219 0 9.56719 0C9.61406 0.00937256 9.65625 0.0234317 9.70312 0.028118C11.2266 0.145275 12.6375 0.609217 13.9078 1.45743C16.0641 2.89612 17.3953 4.89248 17.8641 7.4465C17.925 7.77454 17.9578 8.10726 18 8.4353C18 8.80083 18 9.16168 18 9.52721C17.9906 9.57876 17.9766 9.62562 17.9719 9.67717C17.8922 10.7644 17.6391 11.8047 17.1609 12.7842C15.8016 15.5678 13.5984 17.2689 10.5516 17.8594C10.2234 17.9203 9.89531 17.9531 9.5625 18C9.1875 18 8.8125 18 8.4375 18C8.39062 17.9906 8.34844 17.9766 8.30156 17.9719C6.48281 17.8266 4.85156 17.1986 3.42656 16.0599C1.64063 14.6353 0.534375 12.7889 0.135937 10.5348C0.0796872 10.2114 0.0421875 9.88336 0 9.56001ZM15.7312 13.4824C17.8125 10.4457 17.625 5.86722 14.4094 2.97579C11.2125 0.103098 6.40313 0.210883 3.30938 3.23822C0.271875 6.21401 0.309375 10.6847 2.26875 13.4777C3.42187 11.8141 4.96406 10.7082 6.9375 10.1552C6.01875 9.45691 5.47969 8.56652 5.40937 7.42775C5.33906 6.28899 5.72813 5.31893 6.5625 4.54569C8.01562 3.20073 10.2891 3.29914 11.6344 4.7472C13.0406 6.25618 12.9281 8.80083 11.0625 10.1552C13.0266 10.7082 14.5734 11.8141 15.7312 13.4824ZM15.1594 14.2369C13.6781 12.0156 11.6297 10.7878 8.94844 10.8066C6.30469 10.8253 4.28906 12.0484 2.84063 14.2369C5.96719 17.9953 11.925 18.0797 15.1594 14.2369ZM8.925 9.89742C10.3641 9.96303 11.6203 8.79615 11.7 7.31528C11.775 5.86254 10.6125 4.57381 9.16406 4.50352C7.64531 4.42853 6.37969 5.5673 6.30469 7.08097C6.225 8.57121 7.39219 9.82244 8.925 9.89742Z" fill="#13CB68"/>
</svg>
